<?xml version="1.0" encoding="UTF-8"?>
<svg xmlns="http://www.w3.org/2000/svg"
     width="1536" height="1024" viewBox="0 0 1536 1024">
  <title>Open-top piggy-bank outline and capacity range</title>
  <path d="M 662 220
C 596 211 532 207 472 220
C 441 201 401 187 379 209
C 354 235 386 313 446 358
C 403 374 366 407 344 449
C 322 449 293 447 276 468
C 252 497 259 555 289 579
C 318 603 356 596 383 574
C 402 637 444 689 504 712
C 486 755 505 805 553 817
C 610 830 653 797 654 745
C 720 765 797 766 874 750
C 879 799 918 827 974 815
C 1033 803 1057 754 1032 707
C 1084 686 1120 648 1144 596
C 1169 543 1173 493 1164 456
C 1193 478 1243 476 1262 433
C 1278 398 1252 358 1216 364
C 1184 370 1178 407 1206 426
C 1170 421 1148 405 1135 374
C 1115 319 1076 278 1017 248
C 1001 240 991 231 986 220
L 970 248
C 1018 262 1049 299 1060 360
C 1077 455 1054 561 1000 627
C 936 704 809 723 675 697
C 568 676 499 624 474 553
C 448 480 466 389 523 323
C 554 288 600 258 649 249
L 662 220"
        fill="none"
        stroke="#000000"
        stroke-width="18"
        stroke-linecap="round"
        stroke-linejoin="round"
        vector-effect="non-scaling-stroke"/>
</svg>
